<?xml version="1.0" standalone="no"?>
<!DOCTYPE svg PUBLIC "-//W3C//DTD SVG 20010904//EN"
 "http://www.w3.org/TR/2001/REC-SVG-20010904/DTD/svg10.dtd">
<svg version="1.0" xmlns="http://www.w3.org/2000/svg"
 width="310.000000pt" height="310.000000pt" viewBox="0 0 310.000000 310.000000"
 preserveAspectRatio="xMidYMid meet">
<metadata>
Created by potrace 1.11, written by Peter Selinger 2001-2013
</metadata>
<g transform="translate(0.000000,310.000000) scale(0.100000,-0.100000)"
fill="#000000" stroke="none">
<path d="M1200 3001 c0 -4 -21 -13 -47 -20 -63 -16 -136 -64 -177 -115 -18
-22 -64 -97 -101 -166 -102 -188 -115 -210 -151 -273 -19 -32 -34 -60 -34 -62
0 -2 -25 -47 -55 -100 -30 -54 -55 -101 -55 -105 0 -5 -5 -10 -10 -12 -6 -2
24 -24 67 -49 43 -26 154 -92 246 -148 93 -55 171 -101 175 -101 8 0 34 43
127 215 21 39 57 104 80 145 24 42 60 107 80 145 21 39 49 87 62 107 12 21 23
40 23 43 0 10 172 310 198 345 38 53 89 97 132 117 22 10 40 21 40 24 0 3 -42
5 -92 4 -51 -1 -101 2 -110 7 -9 4 -19 4 -22 0 -6 -11 -168 -8 -186 3 -8 5
-11 4 -7 -2 7 -10 -112 -10 -160 1 -13 3 -23 2 -23 -3z"/>
<path d="M1829 2931 c-38 -8 -93 -41 -122 -75 -28 -33 -100 -144 -139 -217
l-36 -67 115 -207 c63 -114 113 -208 111 -209 -2 -1 -33 -20 -70 -42 -37 -21
-68 -42 -68 -46 0 -9 27 -15 105 -23 32 -4 62 -8 65 -10 3 -1 32 -6 65 -9 33
-4 71 -9 85 -11 138 -18 191 -26 221 -31 24 -3 28 2 58 84 19 48 39 101 47
117 42 95 140 355 134 355 -5 0 -38 -18 -75 -41 -63 -38 -68 -39 -81 -22 -7
10 -14 21 -14 24 0 4 -25 51 -56 105 -31 55 -72 128 -91 164 -41 75 -93 133
-139 155 -34 16 -57 17 -115 6z"/>
<path d="M2475 1949 c-44 -28 -100 -61 -125 -75 -25 -14 -65 -38 -90 -54 -25
-16 -78 -48 -118 -72 -49 -29 -71 -47 -67 -56 3 -8 96 -179 207 -381 111 -201
219 -397 240 -436 104 -189 127 -253 125 -345 l-2 -71 22 28 c13 15 23 31 23
34 0 3 27 55 61 115 34 60 77 138 96 174 20 36 49 88 65 117 58 105 77 212 54
312 -7 29 -51 121 -106 221 -23 41 -82 147 -130 235 -136 246 -144 261 -160
283 -15 22 -15 21 -95 -29z"/>
<path d="M695 1758 c-29 -16 -38 -30 -116 -167 -39 -69 -99 -168 -133 -220
-34 -53 -86 -136 -116 -186 -29 -49 -60 -101 -68 -115 -54 -86 -137 -284 -147
-348 -3 -21 -8 -49 -11 -62 -18 -82 0 -185 44 -263 105 -183 398 -290 692
-254 51 6 69 9 125 21 58 12 165 59 219 97 116 80 178 189 179 318 2 174 -61
332 -257 649 -56 89 -123 197 -149 240 -26 42 -73 121 -103 175 -66 117 -106
145 -159 115z m82 -40 c6 -7 29 -49 53 -93 24 -44 51 -91 60 -105 56 -81 284
-458 318 -525 107 -210 141 -350 118 -485 -10 -55 -56 -139 -100 -182 -78 -76
-186 -127 -326 -154 -99 -20 -317 -11 -410 16 -156 45 -275 135 -328 247 -24
52 -27 69 -26 158 1 86 12 151 38 220 2 6 7 21 12 35 16 53 128 257 220 403
101 158 244 395 244 403 0 14 55 84 68 87 20 4 44 -6 59 -25z"/>
<path d="M713 1628 c-63 -106 -119 -201 -128 -216 -10 -17 -127 -203 -171
-272 -134 -210 -214 -435 -198 -559 26 -203 224 -330 514 -330 312 1 510 138
517 356 1 39 -3 88 -8 108 -6 21 -12 45 -14 54 -12 61 -95 244 -146 321 -50
77 -281 454 -309 505 -18 33 -34 61 -35 63 -2 2 -12 -12 -22 -30z m-296 -1067
c46 -80 167 -152 282 -167 100 -13 57 -41 -48 -31 -132 12 -281 124 -281 212
0 37 22 30 47 -14z"/>
<path d="M1798 861 c-92 -126 -168 -233 -170 -239 -3 -11 332 -480 343 -481 3
-1 6 35 5 80 0 44 1 84 4 88 3 3 106 7 230 7 211 1 228 2 268 23 78 40 107 89
111 186 3 74 -20 139 -98 282 l-56 102 -230 3 -230 3 2 88 c1 48 -1 87 -5 87
-4 -1 -82 -103 -174 -229z"/>
</g>
</svg>
